<?xml version="1.0" encoding="UTF-8"?><svg id="a" xmlns="http://www.w3.org/2000/svg" viewBox="0 0 206.9107 40.0889"><defs><style>.c{fill:#007680;}.d{fill:#812157;}.e{fill:#91c6d0;}</style></defs><g id="b"><g><path d="M127.5,11.1216h-2c-2,0-3.8,.6-4.8,1.7V2.2216h-4.5V34.6216h4.5v-15.7c0-2.6,1.3-3.9,3.8-3.9h2.2c2.2,0,3.4,1.1,3.4,3.4v16.2h4.5V18.3216c0-2.3-.6-4.1-1.8-5.3-1.3-1.3-3-1.9-5.3-1.9Z"/><path d="M168.8,27.3216c0,2.3-1.1,3.4-3.3,3.4h-2.7c-2.2,0-3.3-1.1-3.3-3.4V11.1216h-4.5V27.5216c0,2.3,.6,4,1.8,5.3,1.2,1.2,2.9,1.9,5.1,1.9h4.6c2.2,0,3.9-.6,5.1-1.9,1.2-1.2,1.8-3,1.8-5.3V11.1216h-4.5V27.3216h-.1Z"/><path d="M89.9,30.7216h-9.8c-2.2,0-3.4-1.1-3.4-3.4v-2.4h13.7v-6.7c0-2.3-.6-4-1.9-5.3-1.3-1.2-3-1.9-5.3-1.9h-3.8c-2.3,0-4,.6-5.3,1.9-1.2,1.2-1.9,3-1.9,5.3v9.2c0,2.2,.6,4,1.9,5.3,1.2,1.3,3,1.9,5.3,1.9h10.4s.9-.5,.9-1.9-.8-2-.8-2Zm-13.1-12.3c0-1.2,.3-2,.8-2.6,.5-.5,1.4-.8,2.5-.8h2.5c1.2,0,2,.3,2.5,.8s.8,1.4,.8,2.6v3.4h-9.2v-3.4h.1Z"/><path d="M110.4,30.7216h-7.7c-2.2,0-3.3-1.1-3.3-3.4v-8.9c0-2.3,1.1-3.4,3.3-3.4h7.5s.9-.6,.9-2-.9-2-.9-2h-8.2c-2.3,0-4,.6-5.3,1.9-1.2,1.2-1.9,3-1.9,5.3v9.2c0,2.2,.6,4,1.9,5.3,1.2,1.3,3,1.9,5.3,1.9h8.3s.9-.6,.9-1.9-.8-2-.8-2Z"/><path d="M151.3,30.7216h-2.6c-2.3,0-3.4-1.1-3.4-3.4V15.0216h4.8s.9-.6,.9-2-.9-2-.9-2h-4.8V5.6216h-4.5v5.4h-3.5v3.9h3.5v12.5c0,2.2,.6,4,1.9,5.2,1.3,1.2,3.1,1.8,5.3,1.8h3.3s.9-.6,.9-2c-.1-1.1-.9-1.7-.9-1.7Z"/><path d="M68.3,30.7216h-2.6c-2.3,0-3.4-1.1-3.4-3.4V15.0216h4.8s.9-.6,.9-2-.9-2-.9-2h-4.8V5.6216h-4.5v5.4h-3.5v3.9h3.5v12.5c0,2.2,.6,4,1.9,5.2s3.1,1.8,5.3,1.8h3.3s.9-.6,.9-2c-.1-1.1-.9-1.7-.9-1.7Z"/><path d="M205.2,12.9216c-1.2-1.2-2.9-1.9-5.1-1.9h-2.6c-2.6,0-4,.9-5.1,2.9-1.1-1.9-2.6-2.9-5.1-2.9h-2.6c-2.2,0-4,.6-5.1,1.9-1.2,1.2-1.8,3-1.8,5.3v16.4h4.5V18.4216c0-2.3,1.1-3.4,3.3-3.4h1.3c2.2,0,3.3,1.1,3.3,3.4v16.2h4.3V18.4216c0-2.3,1.1-3.4,3.3-3.4h1.3c2.2,0,3.3,1.1,3.3,3.4v16.2h4.5V18.2216c.1-2.3-.5-4-1.7-5.3Z"/></g><path class="d" d="M4,39.4216h.1c.5-.1,1.1-.2,1.7-.3,4.7-1.1,9.4-3.7,12.3-9.4,1.4-2.7,1.9-7.2,2.2-10.2h0c.2-2.5,1.1-6.6,1.8-8.7C25.3,2.3216,34.4,.7216,38.6,.5216c1.7-.3,3.4-.5,5-.5h-6.5c-6.5-.1-15.8,1.8-19.2,9.3-1.3,2.8-1.9,7.2-2.2,10.2h0c-.2,2.5-.8,6.6-1.6,8.7-3.3,8.3-7.8,10.8-12.7,11.4h1.6c.2-.1,.6-.2,1-.2Z"/><path class="e" d="M9,39.3216c.2,0,.5,0,.8-.1,5.9-.8,13.3-3.7,16.1-9.5,1.3-2.8,1.9-7.2,2.2-10.2h0c.2-2.5,1.1-6.6,1.8-8.7C33,2.4216,42.1,.8216,46.3,.5216c1.8-.3,3.6-.5,5.2-.5h-6.6c-6.5-.1-15.8,1.8-19.2,9.3-1.3,2.8-1.9,7.2-2.2,10.2h0c-.2,2.5-1.1,6.6-1.8,8.7-2.3,6.2-8.2,9-12.6,10.1-2.7,.7-4.9,1.1-6.3,1.3,3.6-.1,6.2-.3,6.2-.3Z"/><path class="c" d="M56.5,.3216h0c-6.1-1-18.7-.1-22.9,9-1.3,2.8-1.9,7.2-2.2,10.2h0c-.2,2.5-1,6.7-1.8,8.7-4.4,10.3-18.4,10.9-20.6,11.1,0,0-4.2,.4-8.9,.3H.1c-.1,0-.1,.1-.1,.1q0,.1,.1,.1c1.3,.1,5.7,.4,11,.2,.4,0,2.3-.1,2.9-.1,5-.2,11.4-1.3,15.9-5,1.1-.9,2.1-1.9,2.9-3.1,.4-.6,.8-1.2,1.1-1.9,1.3-2.8,1.9-7.2,2.2-10.2h0c.2-2.5,1.1-6.6,1.8-8.7,1.8-4.9,5.5-7.5,9.1-9,4.7-1.8,9.2-1.5,9.6-1.5h0l.1-.1c-.1-.1-.2-.1-.2-.1Z"/></g></svg>