<svg xmlns="http://www.w3.org/2000/svg" version="1.1" xmlns:xlink="http://www.w3.org/1999/xlink" width="120" height="120"><svg version="1.1" id="SvgjsSvg1019" width="120" height="120" viewBox="0 0 120 120" sodipodi:docname="favicon.svg" inkscape:export-filename="favicon.svg" inkscape:export-xdpi="96" inkscape:export-ydpi="96" inkscape:version="1.4 (86a8ad7, 2024-10-11)" xmlns:inkscape="http://www.inkscape.org/namespaces/inkscape" xmlns:sodipodi="http://sodipodi.sourceforge.net/DTD/sodipodi-0.dtd" xmlns="http://www.w3.org/2000/svg" xmlns:svg="http://www.w3.org/2000/svg">
  <sodipodi:namedview id="SvgjsSodipodi:namedview1018" pagecolor="#ffffff" bordercolor="#000000" borderopacity="0.25" inkscape:showpageshadow="2" inkscape:pageopacity="0.0" inkscape:pagecheckerboard="0" inkscape:deskcolor="#d1d1d1" inkscape:clip-to-page="false" inkscape:zoom="7.940645" inkscape:cx="47.099448" inkscape:cy="61.141129" inkscape:window-width="2874" inkscape:window-height="1374" inkscape:window-x="547" inkscape:window-y="417" inkscape:window-maximized="0" inkscape:current-layer="g2">
    <inkscape:page x="0" y="0" width="120" height="120" id="SvgjsInkscape:page1017" margin="0" bleed="0"></inkscape:page>
  </sodipodi:namedview>
  <defs id="SvgjsDefs1016">
    <clipPath clipPathUnits="userSpaceOnUse" id="SvgjsClipPath1015">
      <rect style="fill:#ffffff;stroke:#004b89;stroke-width:1.88976" id="SvgjsRect1014" width="235.37131" height="91.050537" x="0.37780306" y="4.9114399" ry="0" clip-path="none"></rect>
    </clipPath>
  </defs>
  <g id="SvgjsG1013" inkscape:groupmode="layer" transform="translate(-106.25455,11.854546)">
    <path d="M 180.26894,28.867125 C 170.27926,21.60512 160.1802,24.442798 150.98943,28.610444 152.03073,18.51853 151.70197,8.100338 141.71229,0.83833281 l -3.82211,5.25772559 c 1.57732,1.1466321 2.8759,2.4924485 3.87183,3.8861186 L 122.39666,36.62132 c -1.63294,-0.517383 -3.31373,-1.337429 -4.89105,-2.48406 l -3.82211,5.257726 c 9.98968,7.262006 20.00111,4.360627 29.2795,0.256681 -1.12896,10.028209 -0.71252,20.510107 9.27715,27.772113 10.07731,7.325706 20.17636,4.488029 29.36714,0.320383 -1.12895,10.028209 -0.80017,20.446404 9.18951,27.708413 l 3.82211,-5.257728 c -1.66495,-1.210335 -2.8759,-2.492449 -3.87183,-3.886121 l 19.36536,-26.639143 c 1.63294,0.517384 3.2261,1.273725 4.89105,2.48406 l 3.8221,-5.257726 c -9.98968,-7.262005 -20.00111,-4.360626 -29.19188,-0.192979 1.12896,-10.028207 0.71254,-20.510107 -9.36477,-27.835814 z m -24.20668,33.298928 c -1.57733,-1.146631 -2.87591,-2.49245 -3.87182,-3.886119 l 19.42904,-26.726772 c 1.63294,0.517384 3.31373,1.337427 4.89105,2.48406 1.57733,1.146633 2.87591,2.49245 3.87182,3.88612 l -19.42904,26.726772 c -1.63294,-0.517384 -3.31373,-1.337428 -4.89105,-2.484061 z M 130.07505,37.113535 144.53536,17.221808 c 0.69388,4.388586 0.0976,9.446507 -0.60222,14.831014 -4.84227,2.239194 -9.4695,4.366832 -13.85809,5.060713 z m 19.88055,-0.816618 c 4.90597,-2.326821 9.5332,-4.454459 13.92178,-5.148342 l -14.52401,19.979357 c -0.69389,-4.388586 -0.18519,-9.510209 0.60223,-14.831015 z m 38.64427,28.092495 c 4.81835,-2.390524 9.38187,-4.430533 13.77047,-5.124415 l -14.39661,19.804099 c -0.69388,-4.388586 -0.16127,-9.358877 0.62614,-14.679684 z m -5.95875,-4.331723 c -4.96967,2.414452 -9.5969,4.54209 -14.07311,5.172269 l 14.6514,-20.154616 c 0.78152,4.45229 0.1852,9.510211 -0.57829,14.982347 z" id="SvgjsPath1012" style="stroke-width:1.08336"></path>
    <text xml:space="preserve" style="font-style:normal;font-variant:normal;font-weight:normal;font-stretch:normal;font-size:64px;font-family:'Bauhaus 93';-inkscape-font-specification:'Bauhaus 93, Normal';font-variant-ligatures:normal;font-variant-caps:normal;font-variant-numeric:normal;font-variant-east-asian:normal;text-align:center;writing-mode:lr-tb;direction:ltr;text-anchor:middle;fill:#004b89;fill-opacity:1;stroke:#004b89;stroke-width:1.88976" x="166.89517" y="69.473579" id="SvgjsText1011"><tspan id="SvgjsTspan1010" x="166.89517" y="69.473579" sodipodi:role="line">SBW</tspan></text>
  </g>
</svg><style>@media (prefers-color-scheme: light) { :root { filter: none; } }
@media (prefers-color-scheme: dark) { :root { filter: none; } }
</style></svg>